<?xml version="1.0" encoding="UTF-8" standalone="no"?>
<svg
   xmlns:dc="http://purl.org/dc/elements/1.1/"
   xmlns:cc="http://creativecommons.org/ns#"
   xmlns:rdf="http://www.w3.org/1999/02/22-rdf-syntax-ns#"
   xmlns:svg="http://www.w3.org/2000/svg"
   xmlns="http://www.w3.org/2000/svg"
   xmlns:sodipodi="http://sodipodi.sourceforge.net/DTD/sodipodi-0.dtd"
   xmlns:inkscape="http://www.inkscape.org/namespaces/inkscape"
   width="100%"
   height="100%"
   viewBox="0 0 24 24"
   version="1.1"
   id="svg6"
   sodipodi:docname="orange.svg"
   inkscape:version="0.92.4 (5da689c313, 2019-01-14)">
  <metadata
     id="metadata12">
    <rdf:RDF>
      <cc:Work
         rdf:about="">
        <dc:format>image/svg+xml</dc:format>
        <dc:type
           rdf:resource="http://purl.org/dc/dcmitype/StillImage" />
        <dc:title></dc:title>
      </cc:Work>
    </rdf:RDF>
  </metadata>
  <defs
     id="defs10" />
  <sodipodi:namedview
     pagecolor="#ffffff"
     bordercolor="#666666"
     borderopacity="1"
     objecttolerance="10"
     gridtolerance="10"
     guidetolerance="10"
     inkscape:pageopacity="0"
     inkscape:pageshadow="2"
     inkscape:window-width="1440"
     inkscape:window-height="837"
     id="namedview8"
     showgrid="false"
     inkscape:zoom="19.666667"
     inkscape:cx="9.9372034"
     inkscape:cy="12.501328"
     inkscape:window-x="-8"
     inkscape:window-y="-8"
     inkscape:window-maximized="1"
     inkscape:current-layer="svg6" />
  <path
     d="M0 0h24v24H0V0z"
     id="path2"
     fill="none" />
  <g
     id="g45"
     transform="translate(43.627119,7.7288136)">
    <path
       inkscape:connector-curvature="0"
       id="path32"
       d="m -32.992981,16.177222 c -1.542735,-0.175027 -3.367553,-0.800153 -4.728813,-1.619943 -3.179936,-1.915051 -5.23899,-5.0641086 -5.752806,-8.7981736 -0.09886,-0.718454 -0.08418,-2.382143 0.0276,-3.127119 0.530143,-3.53329796 2.529152,-6.5937513 5.547238,-8.4927425 3.456029,-2.1745458 7.974026,-2.3825589 11.639027,-0.5358725 1.236855,0.6232158 2.102957,1.2441673 3.073467,2.2035232 1.582978,1.5647849 2.695796,3.51246984 3.216826,5.6301769 0.415809,1.6900389 0.457274,3.4805249 0.119676,5.1677559 -1.008076,5.0381226 -5.12519,8.8978106 -10.185017,9.5481906 -0.678251,0.08718 -2.286111,0.100341 -2.9572,0.0242 z m 2.668961,-3.325782 c 2.121989,-0.319824 4.034745,-1.393076 5.387401,-3.0228826 0.540432,-0.651163 0.589478,-0.747125 0.5336,-1.044028 -0.263482,-1.400001 -2.183379,-2.597253 -5.132334,-3.200536 -1.415656,-0.289607 -2.677563,-0.289091 -4.118644,0.0017 -2.051931,0.414032 -3.618804,1.127976 -4.480488,2.041531 -0.39157,0.415142 -0.598643,0.802912 -0.639342,1.197247 -0.02883,0.279338 -0.0276,0.282449 0.268976,0.679669 0.41839,0.5603726 1.283787,1.4050246 1.852459,1.8080526 1.108913,0.785907 2.445911,1.334835 3.742171,1.536413 0.618917,0.09625 1.956745,0.09772 2.586201,0.0028 z m -0.152011,-9.9069666 c 2.577747,-0.8296073 3.356818,-4.110147 1.426654,-6.0074019 -0.42626,-0.418992 -0.864968,-0.6882304 -1.426654,-0.8755479 -0.362241,-0.1208042 -0.484723,-0.1357828 -1.118644,-0.1368013 -0.64957,-0.00104 -0.747462,0.011269 -1.118645,0.1406993 -1.539202,0.5367163 -2.481918,1.8431348 -2.481918,3.43944654 0,1.72354466 1.141238,3.14643126 2.837851,3.53821026 0.479606,0.11075 1.376993,0.06372 1.881356,-0.0986 z"
       style="fill:#ffaaaa;stroke-width:0.05084746" />
    <path
       inkscape:connector-curvature="0"
       id="path34"
       d="m -32.209247,13.073078 c -2.455488,-0.151841 -4.871456,-1.552067 -6.363961,-3.6883642 -0.211919,-0.3033319 -0.225527,-0.3432161 -0.205203,-0.6014723 0.09161,-1.1640377 1.564762,-2.3377791 3.846047,-3.0643522 2.503647,-0.7973936 4.726468,-0.7323206 7.306311,0.2138916 0.621882,0.2280894 1.416853,0.6346423 1.894762,0.9689942 0.738991,0.517008 1.31919,1.3492195 1.343029,1.9263818 0.01136,0.2750401 -0.02178,0.3322304 -0.6479,1.1179986 -1.420477,1.7826775 -3.696225,2.9839245 -5.892856,3.1105275 -0.337981,0.01948 -0.626032,0.03969 -0.640115,0.04491 -0.01408,0.0052 -0.302134,-0.0076 -0.640114,-0.02851 z"
       style="fill:#ffd5d5;stroke-width:0.0525663" />
    <path
       inkscape:connector-curvature="0"
       id="path36"
       d="m -32.411804,3.1145539 c -0.763848,-0.2048087 -1.28835,-0.5180935 -1.827557,-1.0915991 -0.658008,-0.6998638 -0.97665,-1.51312172 -0.97665,-2.4926721 0,-0.663818 0.09454,-1.0629291 0.399237,-1.685369 0.180363,-0.3684515 0.304645,-0.5317111 0.702289,-0.9225451 0.814893,-0.8009361 1.642825,-1.1169202 2.788321,-1.0641763 0.908648,0.041836 1.563428,0.2910224 2.221078,0.845258 0.28561,0.2406991 0.749569,0.7629978 0.749569,0.8438254 0,0.016293 0.05563,0.1110532 0.123631,0.2105801 0.199695,0.2922954 0.404312,0.98686 0.44069,1.49590781 0.130708,1.82907169 -1.079937,3.45907099 -2.878725,3.87588599 -0.478844,0.1109579 -1.298242,0.1038565 -1.741883,-0.015092 z"
       style="fill:#ffd5d5;stroke-width:0.05284527" />
  </g>
</svg>
