<?xml version="1.0" encoding="UTF-8" standalone="no"?>
<svg
   xmlns="http://www.w3.org/2000/svg"
   width="100%"
   height="100%"
   viewBox="0 0 124 124"
   version="1.1">
  <path
     d="M62 43.509L22.391 3.9C17.206-1.284 8.926-1.286 3.82 3.82c-5.142 5.141-5.071 13.42.08 18.571L43.509 62 3.9 101.609c-5.184 5.185-5.186 13.465-.08 18.571 5.141 5.142 13.42 5.071 18.571-.08L62 80.491l39.609 39.609c5.185 5.184 13.465 5.186 18.571.08 5.142-5.141 5.071-13.42-.08-18.571L80.491 62 120.1 22.391c5.184-5.185 5.186-13.465.08-18.571-5.141-5.142-13.42-5.071-18.571.08L62 43.509z"
      />
</svg>
