<svg xmlns="http://www.w3.org/2000/svg" width="100%" height="100%" viewBox="0 0 24 24">
  <path fill="white" fill-rule="evenodd" d="M15,24 L15,15 L18,15 L19,12 L15,12 L15,9 C15,8.44771525 15.4477153,8 16,8 L19,8 L19,5 L16,5 C13.790861,5 12,6.790861 12,9 L12,12 L9,12 L9,15 L12,15 L12,24 L7.6916556,24 C5.01709938,24 4.04724067,23.7215232 3.06946289,23.1986019 C2.09168511,22.6756806 1.32431939,21.9083149 0.801398111,20.9305371 C0.278476833,19.9527593 1.2037061e-16,18.9829006 -2.07168062e-16,16.3083444 L2.07168062e-16,7.6916556 C-1.2037061e-16,5.01709938 0.278476833,4.04724067 0.801398111,3.06946289 C1.32431939,2.09168511 2.09168511,1.32431939 3.06946289,0.801398111 C4.04724067,0.278476833 5.01709938,1.80555915e-16 7.6916556,-3.10752092e-16 L16.3083444,3.10752092e-16 C18.9829006,-1.80555915e-16 19.9527593,0.278476833 20.9305371,0.801398111 C21.9083149,1.32431939 22.6756806,2.09168511 23.1986019,3.06946289 C23.7215232,4.04724067 24,5.01709938 24,7.6916556 L24,16.3083444 C24,18.9829006 23.7215232,19.9527593 23.1986019,20.9305371 C22.6756806,21.9083149 21.9083149,22.6756806 20.9305371,23.1986019 C19.9527593,23.7215232 18.9829006,24 16.3083444,24 L15,24 Z"/>
</svg>
