<?xml version="1.0" encoding="UTF-8" standalone="no"?>
<svg
   xmlns="http://www.w3.org/2000/svg"
   width="100%"
   height="100%"
   fill-rule="evenodd"
   stroke-linejoin="round"
   stroke-miterlimit="1.414"
   clip-rule="evenodd"
   viewBox="0 0 74 100"
   version="1.1">
  <g
     fill="currentColor"
     id="g6">
    <path
       d="M28.77 85.595c2.422 1.256 5.194 1.905 8.31 1.905 3.117 0 5.888-.649 8.311-1.905.015.17.023.342.023.516 0 6.945-8.334 13.889-8.334 13.889s-8.333-6.944-8.333-13.889c0-.174.008-.346.023-.516zm-8.084-8.647L8.145 88.583c-1.688 1.566-3.528 1.073-4.137-1.201L.633 74.786c-1.708-6.374.826-15.176 5.665-19.666l9.521-8.833a1.83 1.83 0 0 1 .505-.343C17.407 25.17 29.707 4.656 37.08 0c7.374 4.656 19.674 25.17 20.757 45.944.168.074.338.188.505.343l9.521 8.833c4.839 4.49 7.373 13.292 5.665 19.666l-3.375 12.596c-.61 2.274-2.45 2.767-4.137 1.201L53.474 76.948c2.952-5.829 4.44-13.926 4.44-23.927 0-.455-.019-.9-.054-1.337-.387 9.974-2.819 17.869-6.524 23.279-.169.248-.341.49-.516.726l-.004.006-.102.138-.002.002c-.14.187-.282.371-.425.552l-.005.006-.101.126-.01.012-.1.123-.006.008c-.144.175-.289.348-.436.517l-.011.013-.097.111-.015.017-.099.11-.01.012c-.112.124-.224.247-.337.367l-.005.006-.104.11-.018.018-.094.098-.02.02-.097.1-.014.014c-.114.116-.228.23-.344.341l-.013.013-.099.095-.022.022-.093.087-.023.022-.097.091-.018.015c-.116.108-.233.213-.35.316l-.02.017-.096.084-.026.023-.092.078-.026.023-.098.082-.019.016-.118.097-.123.1-.003.003-.114.091-.024.019-.094.074-.03.024-.091.07-.03.022-.098.075-.021.016-.12.09-.125.09-.012.009-.107.077-.029.021-.093.065-.033.023-.091.063-.031.022-.1.068-.022.014-.124.083-.125.081-.019.013-.103.066-.033.02-.091.058-.036.022-.091.056-.034.021-.102.061-.022.013-.127.075-.126.073-.025.014-.1.057-.036.02-.091.05-.037.021-.093.05-.034.019-.106.056-.02.01-.131.068-.127.064-.03.015-.098.049-.038.018-.091.044a15.153 15.153 0 0 1-6.593 1.503 15.16 15.16 0 0 1-6.594-1.503l-.088-.043-.041-.02-.094-.047-.033-.016-.127-.064-.129-.067-.025-.013-.101-.054-.038-.02-.088-.048-.041-.022-.088-.049-.039-.022-.094-.053-.03-.017-.126-.073-.126-.074-.027-.016-.096-.058-.038-.024-.086-.053-.04-.024-.086-.055-.038-.023-.095-.061-.027-.017-.124-.081-.122-.082-.029-.019-.092-.063-.037-.025-.085-.059-.038-.027-.086-.06-.035-.025-.097-.07-.023-.016-.122-.089-.119-.089-.029-.022-.089-.068-.036-.027-.084-.065-.036-.028-.086-.067-.032-.026-.101-.08-.016-.013-.12-.098-.003-.003-.113-.093-.028-.024-.088-.074-.034-.029-.083-.071-.034-.029-.086-.075-.029-.025-.106-.094-.008-.007-.118-.107-.006-.005-.107-.098-.027-.025-.086-.08-.032-.03-.083-.079-.031-.029-.088-.085-.024-.023-.111-.108-.116-.115-.006-.007-.104-.104-.024-.025-.087-.089-.028-.029-.084-.088-.027-.027-.092-.097-.016-.018-.111-.118-.113-.124-.004-.004-.103-.114-.02-.023-.088-.099-.023-.026-.088-.1-.02-.023-.098-.114-.008-.009-.109-.128-.11-.132-.001-.001-.103-.125-.015-.019-.091-.111-.017-.022-.092-.114-.013-.017c-.141-.178-.281-.36-.42-.545l-.008-.011-.095-.128-.01-.014-.098-.133-.004-.005a29.924 29.924 0 0 1-.411-.583c-3.705-5.41-6.138-13.306-6.524-23.28-.036.436-.054.882-.054 1.337 0 10.001 1.488 18.098 4.439 23.927zM37.08 45.833c6.904 0 12.5-5.596 12.5-12.5 0-6.903-5.596-12.5-12.5-12.5-6.903 0-12.5 5.597-12.5 12.5 0 6.904 5.597 12.5 12.5 12.5z"
       id="path2" />
    <path
       fill-opacity=".302"
       d="M37.08 39.583a6.25 6.25 0 1 0 0-12.5 6.25 6.25 0 0 0 0 12.5z"
       id="path4" />
  </g>
</svg>
