<svg xmlns="http://www.w3.org/2000/svg" width="100%" height="100%" viewBox="0 0 80 61">
  <path fill="#0AF" fill-rule="evenodd" d="M85,25.8059701 L83.3843284,25.8059701 C74.8877984,25.8059701 68,32.6937686 68,41.1902985 C68,49.6868284 74.8877984,56.5746269 83.3843284,56.5746269 L124.615672,56.5746269 C133.112202,56.5746269 140,49.6868284 140,41.1902985 C140,32.6937686 133.112202,25.8059701 124.615672,25.8059701 L123,25.8059701 L123,22.9701493 C123,12.476739 114.49341,3.97014925 104,3.97014925 C93.5065898,3.97014925 85,12.476739 85,22.9701493 L85,25.8059701 Z M126.977563,21.9748798 C136.567125,23.1265193 144,31.2903884 144,41.1902985 C144,51.8794813 135.334705,60.5447761 124.645522,60.5447761 L83.3544776,60.5447761 C72.6652948,60.5447761 64,51.8794813 64,41.1902985 C64,31.2903884 71.4328751,23.1265193 81.0224366,21.9748798 C81.5587111,9.74802943 91.6409684,2.27031727e-15 104,0 C116.359032,-2.27031727e-15 126.441289,9.74802943 126.977563,21.9748798 Z M94.3637378,33.9280398 L98.1242941,37.6711662 L110.652797,25.2007325 C111.751146,24.1074737 113.531923,24.1074737 114.630272,25.2007325 C115.728622,26.2939912 115.728622,28.0665139 114.630272,29.1597727 L98.1242941,45.5892467 L90.3862622,37.8870801 C89.2879126,36.7938213 89.2879126,35.0212986 90.3862622,33.9280398 C91.4846117,32.834781 93.2653883,32.834781 94.3637378,33.9280398 Z" transform="translate(-64)"/>
</svg>
