<?xml version="1.0" encoding="UTF-8" standalone="no"?>
<svg
   xmlns="http://www.w3.org/2000/svg"
   width="100%"
   height="100%"
   viewBox="0 0 86 36"
   version="1.1"
   id="svg14">
  <g
     id="g65">
    <path
       d="m 47.044,14.912 h -3.612 v 6.02 c 0,0.373335 0.0093,0.741998 0.028,1.106 0.01867,0.364002 0.08867,0.690665 0.21,0.98 0.121334,0.289335 0.307999,0.522666 0.56,0.7 0.252001,0.177334 0.620664,0.266 1.106,0.266 0.298668,0 0.606665,-0.028 0.924,-0.084 0.317335,-0.056 0.606665,-0.158666 0.868,-0.308 v 2.296 c -0.298668,0.168001 -0.685998,0.284666 -1.162,0.35 -0.476002,0.06533 -0.844665,0.098 -1.106,0.098 -0.970672,0 -1.721997,-0.135332 -2.254,-0.406 -0.532003,-0.270668 -0.923999,-0.620665 -1.176,-1.05 -0.252001,-0.429336 -0.401333,-0.909997 -0.448,-1.442 -0.04667,-0.532003 -0.07,-1.068664 -0.07,-1.61 V 14.912 H 38 v -2.184 h 2.912 V 9.004 h 2.52 v 3.724 h 3.612 z m 2.032333,-0.56 c 0.709337,-0.653337 1.530662,-1.143332 2.464,-1.47 0.933338,-0.326668 1.866662,-0.49 2.8,-0.49 0.970672,0 1.805996,0.121332 2.506,0.364 0.700004,0.242668 1.273998,0.569331 1.722,0.98 0.448002,0.410669 0.779332,0.881997 0.994,1.414 0.214668,0.532003 0.322,1.08733 0.322,1.666 v 6.776 c 0,0.466669 0.0093,0.895998 0.028,1.288 0.01867,0.392002 0.04667,0.765332 0.084,1.12 h -2.24 c -0.056,-0.672003 -0.084,-1.343997 -0.084,-2.016 h -0.056 c -0.560003,0.858671 -1.222663,1.465332 -1.988,1.82 -0.765337,0.354668 -1.651995,0.532 -2.66,0.532 -0.616003,0 -1.203997,-0.084 -1.764,-0.252 -0.560003,-0.168001 -1.049998,-0.419998 -1.47,-0.756 -0.420002,-0.336002 -0.751332,-0.751331 -0.994,-1.246 -0.242668,-0.494669 -0.364,-1.068663 -0.364,-1.722 0,-0.858671 0.191331,-1.57733 0.574,-2.156 0.382669,-0.57867 0.90533,-1.049998 1.568,-1.414 0.66267,-0.364002 1.437329,-0.625333 2.324,-0.784 0.886671,-0.158668 1.833995,-0.238 2.842,-0.238 h 1.848 v -0.56 c 0,-0.336002 -0.06533,-0.671998 -0.196,-1.008 -0.130667,-0.336002 -0.326665,-0.639332 -0.588,-0.91 -0.261335,-0.270668 -0.587998,-0.485332 -0.98,-0.644 -0.392002,-0.158667 -0.858664,-0.238 -1.4,-0.238 -0.485336,0 -0.909998,0.04667 -1.274,0.14 -0.364002,0.09333 -0.695332,0.209999 -0.994,0.35 -0.298668,0.140001 -0.569332,0.303332 -0.812,0.49 -0.242668,0.186668 -0.475999,0.363999 -0.7,0.532 z m 7.112,5.264 c -0.597336,0 -1.208664,0.03267 -1.834,0.098 -0.625337,0.06533 -1.194664,0.191332 -1.708,0.378 -0.513336,0.186668 -0.933332,0.447998 -1.26,0.784 -0.326668,0.336002 -0.49,0.765331 -0.49,1.288 0,0.765337 0.256664,1.315998 0.77,1.652 0.513336,0.336002 1.208662,0.504 2.086,0.504 0.69067,0 1.278664,-0.116666 1.764,-0.35 0.485336,-0.233335 0.877332,-0.536665 1.176,-0.91 0.298668,-0.373335 0.513333,-0.788664 0.644,-1.246 0.130667,-0.457336 0.196,-0.909998 0.196,-1.358 v -0.84 z M 69.336666,16.06 c -0.298668,-0.373335 -0.667331,-0.685999 -1.106,-0.938 -0.438669,-0.252001 -0.97533,-0.378 -1.61,-0.378 -0.597336,0 -1.115331,0.125999 -1.554,0.378 -0.438669,0.252001 -0.658,0.620664 -0.658,1.106 0,0.392002 0.125999,0.709332 0.378,0.952 0.252001,0.242668 0.550665,0.438666 0.896,0.588 0.345335,0.149334 0.713998,0.261333 1.106,0.336 0.392002,0.07467 0.727999,0.14 1.008,0.196 0.541336,0.130667 1.049998,0.289332 1.526,0.476 0.476002,0.186668 0.886665,0.429332 1.232,0.728 0.345335,0.298668 0.615999,0.662664 0.812,1.092 0.196001,0.429335 0.294,0.951997 0.294,1.568 0,0.74667 -0.158665,1.385997 -0.476,1.918 -0.317335,0.532003 -0.727997,0.965998 -1.232,1.302 -0.504003,0.336002 -1.077997,0.578666 -1.722,0.728 -0.644003,0.149334 -1.292663,0.224 -1.946,0.224 -1.101339,0 -2.067329,-0.167998 -2.898,-0.504 -0.830671,-0.336002 -1.572663,-0.951996 -2.226,-1.848 l 1.904,-1.568 c 0.410669,0.410669 0.867997,0.774665 1.372,1.092 0.504002,0.317335 1.119996,0.476 1.848,0.476 0.317335,0 0.639332,-0.03267 0.966,-0.098 0.326668,-0.06533 0.615999,-0.167999 0.868,-0.308 0.252001,-0.140001 0.457332,-0.317332 0.616,-0.532 0.158667,-0.214668 0.238,-0.461999 0.238,-0.742 0,-0.373335 -0.116666,-0.681332 -0.35,-0.924 -0.233335,-0.242668 -0.513332,-0.433999 -0.84,-0.574 -0.326668,-0.140001 -0.671998,-0.252 -1.036,-0.336 -0.364002,-0.084 -0.685999,-0.154 -0.966,-0.21 -0.541336,-0.130667 -1.054664,-0.279999 -1.54,-0.448 -0.485336,-0.168001 -0.914665,-0.391999 -1.288,-0.672 -0.373335,-0.280001 -0.671999,-0.634665 -0.896,-1.064 -0.224001,-0.429336 -0.336,-0.96133 -0.336,-1.596 0,-0.69067 0.144665,-1.292664 0.434,-1.806 0.289335,-0.513336 0.671998,-0.937998 1.148,-1.274 0.476002,-0.336002 1.01733,-0.587999 1.624,-0.756 0.60667,-0.168001 1.217997,-0.252 1.834,-0.252 0.896005,0 1.754663,0.167998 2.576,0.504 0.821337,0.336002 1.474664,0.895996 1.96,1.68 z M 73.440999,4.832 h 2.52 v 13.664 l 5.712,-5.74 h 3.5 l -6.188,6.02 6.72,7.224 h -3.584 l -6.16,-6.888 V 26 h -2.52 z"
       id="path2"
       style="fill:#3d474d;fill-rule:nonzero" />
    <g
       transform="translate(0,2)"
       id="g10"
       style="fill:none;fill-rule:evenodd">
      <path
         d="M 19.99786,1.0545748 C 31.596219,4.167596 33.658375,9.7684083 30.920218,20.004615 28.182061,30.240821 23.600498,34.058446 12.00214,30.945425 0.40378125,27.832404 -1.6583755,22.231592 1.0797818,11.995385 3.817939,1.7591791 8.3995021,-2.0584464 19.99786,1.0545748 Z"
         id="path6"
         style="fill:#00aaff" />
      <path
         d="M 13.265862,15.877903 V 1.0503247 c 0,-0.77144536 0.62538,-1.39682539 1.396825,-1.39682539 0.771445,0 1.396825,0.62538003 1.396825,1.39682539 V 17.274728 c 0,0.771445 -0.62538,1.396826 -1.396825,1.396826 H 8.1322072 c -0.7714454,0 -1.3968254,-0.625381 -1.3968254,-1.396826 0,-0.771445 0.62538,-1.396825 1.3968254,-1.396825 z"
         transform="rotate(45,7.862,17.698)"
         id="path8"
         style="fill:#ffffff" />
    </g>
    <g
       transform="matrix(0.82303369,0,0,0.60891999,6.6198929,-12.994034)"
       id="g53">
      <g
        opacity=".3"
        fill="#3D474D"
         id="text33">
        <path
           d="m 45.01667,31.060626 1.822917,0.305989 q -0.351563,1.002604 -1.113281,1.529948 -0.755209,0.520834 -1.894532,0.520834 -1.803385,0 -2.66927,-1.178386 -0.683594,-0.94401 -0.683594,-2.382812 0,-1.71875 0.898437,-2.688802 0.898438,-0.976563 2.272136,-0.976563 1.542968,0 2.434895,1.022136 0.891927,1.015625 0.852865,3.118489 H 42.35391 q 0.01953,0.813802 0.442708,1.269531 0.423177,0.449219 1.054688,0.449219 0.429687,0 0.722656,-0.234375 0.292969,-0.234375 0.442708,-0.755208 z m 0.104167,-1.848959 q -0.01953,-0.79427 -0.410156,-1.204427 -0.390625,-0.416666 -0.950521,-0.416666 -0.598959,0 -0.989584,0.436198 -0.390625,0.436198 -0.384114,1.184895 z"
           id="path35" />
        <path
           d="M 49.801826,28.456459 48.14167,28.15698 q 0.279948,-1.002604 0.963542,-1.484375 0.683594,-0.481771 2.03125,-0.481771 1.223958,0 1.822916,0.292969 0.598959,0.286458 0.839844,0.735677 0.247396,0.442708 0.247396,1.634115 l -0.01953,2.135416 q 0,0.911458 0.08463,1.347656 0.09115,0.429688 0.332031,0.92448 h -1.809895 q -0.07161,-0.182292 -0.175782,-0.540365 -0.04557,-0.16276 -0.0651,-0.214844 -0.46875,0.455729 -1.002604,0.683594 -0.533854,0.227865 -1.139323,0.227865 -1.067708,0 -1.686198,-0.579428 -0.611979,-0.579427 -0.611979,-1.464843 0,-0.585938 0.279948,-1.041667 0.279948,-0.462239 0.78125,-0.703125 0.507813,-0.247396 1.458333,-0.429687 1.282552,-0.240886 1.777344,-0.449219 v -0.182292 q 0,-0.527343 -0.260417,-0.748698 -0.260416,-0.227864 -0.983073,-0.227864 -0.488281,0 -0.761718,0.195312 -0.273438,0.188802 -0.442709,0.670573 z m 2.447917,1.484375 q -0.351562,0.117188 -1.113281,0.279948 -0.761719,0.16276 -0.996094,0.31901 -0.358073,0.253907 -0.358073,0.644532 0,0.384114 0.286458,0.664062 0.286459,0.279948 0.729167,0.279948 0.494792,0 0.944011,-0.325521 0.332031,-0.247396 0.436197,-0.605468 0.07162,-0.234375 0.07162,-0.891928 z"
           id="path37" />
        <path
           d="m 55.211983,31.28849 1.835937,-0.279948 q 0.117188,0.533855 0.475261,0.813802 0.358072,0.273438 1.002604,0.273438 0.709635,0 1.067708,-0.260417 0.240885,-0.182291 0.240885,-0.488281 0,-0.208333 -0.130208,-0.345052 -0.136719,-0.130208 -0.611979,-0.240885 -2.213542,-0.488282 -2.80599,-0.891927 -0.820312,-0.559896 -0.820312,-1.55599 0,-0.898437 0.709635,-1.510417 0.709636,-0.611979 2.200521,-0.611979 1.419271,0 2.109375,0.46224 0.690104,0.462239 0.950521,1.367187 l -1.72526,0.319011 q -0.110678,-0.403646 -0.423178,-0.61849 -0.305989,-0.214844 -0.878906,-0.214844 -0.722656,0 -1.035156,0.201823 -0.208333,0.143229 -0.208333,0.371094 0,0.195312 0.182291,0.332031 0.247396,0.182292 1.705729,0.514323 1.464844,0.332031 2.044271,0.813802 0.572917,0.488281 0.572917,1.360677 0,0.950521 -0.794271,1.634115 -0.794271,0.683594 -2.35026,0.683594 -1.412761,0 -2.239584,-0.572917 -0.820312,-0.572917 -1.074218,-1.55599 z"
           id="path39" />
        <path
           d="m 62.412504,26.347084 h 1.946614 l 1.653646,4.908854 1.614583,-4.908854 h 1.894531 l -2.441406,6.653646 -0.436198,1.204427 q -0.240885,0.605469 -0.462239,0.924479 -0.214844,0.31901 -0.501302,0.514323 -0.279948,0.201823 -0.696615,0.3125 -0.410156,0.110677 -0.930989,0.110677 -0.527344,0 -1.035157,-0.110677 l -0.16276,-1.432292 q 0.429687,0.08464 0.774739,0.08464 0.638021,0 0.944011,-0.377604 0.305989,-0.371094 0.46875,-0.950521 z"
           id="path41" />
      </g>
    </g>
  </g>
</svg>
