<svg xmlns="http://www.w3.org/2000/svg" width="100%" height="100%" viewBox="0 0 24 21">
  <path fill="white" fill-rule="evenodd" d="M23.5742069,4.38728 C22.7064828,4.79216 21.7746207,5.06558 20.796,5.18906 C21.7944828,4.55864 22.5616552,3.56114 22.9224828,2.37254 C21.9881379,2.95634 20.9528276,3.3797 19.8508966,3.60776 C18.9691034,2.61908 17.7128276,2 16.3208276,2 C13.6502069,2 11.4848276,4.27892 11.4848276,7.09082 C11.4848276,7.4894 11.5270345,7.87832 11.6102069,8.25044 C7.59103448,8.03834 4.0262069,6.01142 1.64110345,2.9324 C1.22524138,3.68378 0.987310345,4.55864 0.987310345,5.49146 C0.987310345,7.25714 1.84013793,8.8145 3.13862069,9.728 C2.34537931,9.70112 1.60013793,9.47264 0.947172414,9.09128 C0.946344828,9.1127 0.946344828,9.1337 0.946344828,9.15512 C0.946344828,11.62136 2.61434483,13.67894 4.82689655,14.14682 C4.42096552,14.26316 3.99351724,14.3249 3.55158621,14.3249 C3.24124138,14.3249 2.93793103,14.29298 2.64248276,14.23376 C3.2577931,16.25606 5.04372414,17.72732 7.16110345,17.76848 C5.50510345,19.13348 3.41958621,19.94786 1.15406897,19.94786 C0.763448276,19.94786 0.37862069,19.9235 0,19.87604 C2.14013793,21.32126 4.68248276,22.16336 7.41310345,22.16336 C16.3096552,22.16336 21.1746207,14.40722 21.1746207,7.6805 C21.1746207,7.45958 21.1696552,7.24034 21.1605517,7.02194 C22.1056552,6.30416 22.9253793,5.40788 23.5742069,4.38728" transform="translate(0 -2)"/>
</svg>
